# xmcd
#
# Track frame offsets: 
#        150
#        16137
#        28426
#        46191
#        65184
#        83194
#        95420
#        114486
#        131828
#        145759
#        163272
#        179257
#
# Disc length: 2653 seconds
#
# Revision: 4
# Processed by: cddbd v1.5.2PL0 Copyright (c) Steve Scherf et al.
# Submitted via: ExactAudioCopyFreeDBPlugin 1.0
#
DISCID=a80a5b0c
DTITLE=Russell Morris - Sharkmouth
DYEAR=2012
DGENRE=Blues
TTITLE0=Black Dog Blues
TTITLE1=The Big House
TTITLE2=Ballad of Les Darcy
TTITLE3=Bout to Break
TTITLE4=Sharkmouth
TTITLE5=Walk My Blues
TTITLE6=The Drifter
TTITLE7=Squizzy
TTITLE8=The Bridge
TTITLE9=Money Don't Grow on Trees
TTITLE10=Big Red
TTITLE11=Mr. Eternity
EXTD=
EXTT0=
EXTT1=
EXTT2=
EXTT3=
EXTT4=
EXTT5=
EXTT6=
EXTT7=
EXTT8=
EXTT9=
EXTT10=
EXTT11=
PLAYORDER=
